<?xml version="1.0" standalone="no"?>
<!DOCTYPE svg PUBLIC "-//W3C//DTD SVG 20010904//EN"
 "http://www.w3.org/TR/2001/REC-SVG-20010904/DTD/svg10.dtd">
<svg version="1.0" xmlns="http://www.w3.org/2000/svg"
 width="260.000000pt" height="260.000000pt" viewBox="0 0 260.000000 260.000000"
 preserveAspectRatio="xMidYMid meet">
<metadata>
Created by potrace 1.11, written by Peter Selinger 2001-2013
</metadata>
<g transform="translate(0.000000,260.000000) scale(0.100000,-0.100000)"
fill="#000000" stroke="none">
<path d="M1158 2595 c-2 -2 -22 -6 -43 -9 -22 -2 -40 -5 -40 -6 0 -2 -30 -8
-70 -13 -16 -3 -38 -8 -47 -12 -9 -3 -22 -7 -30 -9 -7 -1 -18 -5 -24 -8 -6 -4
-21 -9 -35 -12 -37 -7 -59 -17 -59 -28 0 -5 -4 -7 -8 -4 -5 3 -30 -6 -55 -19
-26 -13 -47 -20 -47 -17 0 4 -5 0 -10 -8 -5 -8 -13 -15 -17 -15 -7 0 -45 -23
-157 -97 -22 -14 -38 -28 -117 -104 -68 -64 -99 -99 -146 -166 -21 -29 -40
-55 -43 -58 -4 -3 -19 -31 -35 -62 -16 -32 -33 -58 -37 -58 -4 0 -8 -8 -8 -18
0 -10 -5 -23 -12 -30 -7 -7 -8 -12 -3 -12 6 0 4 -4 -3 -8 -7 -5 -14 -17 -16
-28 -2 -11 -11 -37 -20 -57 -8 -20 -12 -37 -9 -37 3 0 1 -6 -5 -13 -6 -7 -13
-24 -15 -37 -2 -14 -7 -32 -10 -40 -3 -8 -9 -33 -12 -55 -4 -22 -10 -53 -13
-70 -9 -44 -8 -311 1 -370 10 -63 22 -120 35 -163 6 -18 12 -36 13 -40 6 -24
12 -39 20 -54 5 -10 9 -23 9 -30 0 -7 13 -39 29 -70 16 -32 27 -58 23 -58 -3
0 3 -7 14 -15 10 -8 16 -15 12 -15 -22 -1 131 -207 215 -290 75 -75 169 -150
186 -150 6 0 11 -4 11 -8 0 -5 12 -15 28 -23 15 -8 29 -16 32 -19 7 -7 149
-76 194 -94 42 -18 134 -44 181 -52 17 -4 38 -10 48 -15 12 -7 17 -6 17 3 0 9
3 10 8 2 10 -16 62 -24 62 -10 0 8 2 8 8 0 11 -18 301 -10 387 10 39 9 84 19
100 22 17 3 36 11 43 16 6 6 12 8 12 4 0 -7 84 26 169 67 36 17 70 31 74 29 5
-1 6 1 3 6 -2 4 10 14 27 22 33 14 44 22 78 53 10 9 19 15 19 12 0 -6 27 16
89 72 25 23 57 51 70 62 13 12 21 21 18 21 -3 0 13 18 35 40 23 22 39 40 35
40 -5 0 20 33 55 71 10 10 16 19 13 19 -3 0 10 24 28 52 19 29 40 68 48 85 8
18 18 33 22 33 5 0 6 4 2 9 -3 5 -1 12 5 16 6 4 8 11 5 16 -4 5 -1 9 4 9 6 0
10 3 9 8 -1 4 4 23 11 42 8 19 15 40 15 45 1 6 5 17 8 25 20 56 27 84 22 91
-3 5 -1 9 3 9 5 0 10 10 10 23 1 12 5 42 9 67 12 72 6 425 -7 425 -1 0 -3 9
-5 20 -3 21 -11 57 -14 65 -1 3 -2 9 -1 13 1 4 -3 16 -8 26 -6 10 -12 31 -15
46 -3 16 -10 33 -16 39 -5 5 -10 16 -10 23 0 7 -11 37 -25 68 -14 30 -26 58
-26 62 0 5 -7 12 -15 16 -8 5 -12 11 -10 15 4 8 -78 134 -129 197 -66 82 -174
181 -259 237 -22 15 -46 32 -53 38 -13 10 -194 105 -203 105 -3 0 -18 5 -35
12 -49 19 -157 51 -195 58 -19 3 -46 8 -60 11 -29 6 -337 14 -342 9z"/>
</g>
</svg>
